<svg width="60px" height="60px" viewBox="0 0 60 60">
  <path d="M37.8804653,30.1022907 L53.792979,14.1897771 C54.5719115,13.4108445 54.5739438,12.1475369 53.7960127,11.3696059 L48.8349756,6.40856874 C48.0629275,5.63652067 46.7944109,5.63199596 46.0148044,6.41160248 L30.1022907,22.3241161 L14.1897771,6.41160248 C13.4108445,5.63266993 12.1475369,5.63063771 11.3696059,6.40856874 L6.40856874,11.3696059 C5.63652067,12.1416539 5.63199596,13.4101706 6.41160248,14.1897771 L22.3241161,30.1022907 L6.41160248,46.0148044 C5.63266993,46.7937369 5.63063771,48.0570446 6.40856874,48.8349756 L11.3696059,53.7960127 C12.1416539,54.5680608 13.4101706,54.5725855 14.1897771,53.792979 L30.1022907,37.8804653 L46.0148044,53.792979 C46.7937369,54.5719115 48.0570446,54.5739438 48.8349756,53.7960127 L53.7960127,48.8349756 C54.5680608,48.0629275 54.5725855,46.7944109 53.792979,46.0148044 L37.8804653,30.1022907 Z" id="Combined-Shape"></path>
</svg>
