<svg width="34px" height="34px" viewBox="0 0 34 34">
  <path class="heart-icon--bottom" d="M17.001496,31 C13.819947,31 1,19.3642092 1,11.5540853 C1,6.83742911 5.02630513,3 9.97515973,3 C14.237837,3 16.0280817,5.46810894 16.9895278,6.80116222 C16.9905252,6.79822166 16.9925199,6.79626129 16.9945146,6.79332073 C17.9699236,5.46712875 19.7851021,3 24.0058906,3 C28.9657161,3 33,6.84625079 33,11.5756494 C33,19.2916754 19.915755,31 17.001496,31 L17.001496,31 Z"></path>
  <path class="heart-icon--top" d="M3,11.5182385 C3,18.4265911 14.4785102,28.1333753 16.6716846,28.9008612 C18.8718404,28.0814255 30.3633162,18.2756424 30.3633162,11.5398026 C30.3633162,7.9336974 27.3672744,5 23.6880474,5 C20.7309023,5 19.513137,6.65455437 18.6254948,7.86214381 C18.0939068,8.58454106 17.591242,9.26675068 16.6637058,9.26675068 C15.7311828,9.26675068 15.2384915,8.58454106 14.716877,7.86214381 C13.8441951,6.65455437 12.6503662,5 9.6553218,5 C5.98507091,5 3,7.92389554 3,11.5182385 Z"></path>
</svg>
