<svg width="32px" height="32px" viewBox="0 0 32 32">
  <path class="heart-icon--bottom" d="M0,11 C0,5.83742911 4.02630513,2 9,2 C13.237837,2 15.0280817,4.46810894 16,6 C16.9699236,4.46712875 18.7851021,2 23,2 C27.9657161,2 32,5.84625079 32,11 C32,18.2916754 18.915755,30 16,30 C12.819947,30 0,18.3642092 0,11 Z"></path>
  <path class="heart-icon--top" d="M2,11 L2,11 C2,13.6824521 4.43674656,17.8225812 8.2642061,21.8911955 C11.4544162,25.2824096 15.1706486,28 16,28 C16.7025849,28 20.4586161,25.2195097 23.6413174,21.8590847 C27.5286037,17.7547303 30,13.6304858 30,11 C30,7.02229505 26.933467,4 23,4 C20.3619633,4 19.0000218,4.9991688 17.690084,7.06939989 L16.0022757,9.73681898 L14.3112198,7.07145764 C12.984998,4.9811303 11.651629,4 9,4 C5.05818061,4 2,7.01383826 2,11 L2,11 Z"></path>
</svg>
