<svg width="366px" height="102px" viewBox="0 0 366 102">
  <path d="M344.347,40.106 C343.516329,41.708008 342.745004,43.3989911 342.033,45.179 C341.320996,46.9590089 340.787002,48.3533283 340.431,49.362 C340.371666,49.6586682 340.208501,50.2816619 339.9415,51.231 C339.674499,52.1803381 339.377835,53.2334942 339.0515,54.3905 C338.725165,55.5475058 338.443335,56.689661 338.206,57.817 C337.968665,58.944339 337.85,59.8639964 337.85,60.576 C337.85,60.8726682 337.583003,61.1396655 337.049,61.377 C336.514997,61.6143345 335.832671,61.733 335.002,61.733 C333.69666,61.733 332.658337,61.5550018 331.887,61.199 C331.115663,60.8429982 330.537169,60.264504 330.1515,59.4635 C329.765831,58.662496 329.5285,57.6093399 329.4395,56.304 C329.3505,54.9986601 329.306,53.4263425 329.306,51.587 L329.306,44.912 C329.306,44.437331 329.291167,43.962669 329.2615,43.488 C329.231833,43.013331 329.128001,42.7166673 328.95,42.598 C328.653332,42.7166673 328.282502,43.4879929 327.8375,44.912 C327.392498,46.3360071 326.977169,48.0714898 326.5915,50.1185 C326.205831,52.1655102 325.864668,54.3163221 325.568,56.571 C325.271332,58.8256779 325.123,60.8429911 325.123,62.623 C325.123,63.2756699 324.781837,63.6613327 324.0995,63.78 C323.417163,63.8986673 322.660671,63.958 321.83,63.958 C321.592665,63.958 321.192169,63.9135004 320.6285,63.8245 C320.064831,63.7354996 319.501169,63.6316673 318.9375,63.513 C318.373831,63.3943327 317.854669,63.2311677 317.38,63.0235 C316.905331,62.8158323 316.608667,62.5636682 316.49,62.267 C316.193332,61.4956628 315.970834,60.2200089 315.8225,58.44 C315.674166,56.6599911 315.6,53.9010187 315.6,50.163 C315.6,47.9676557 315.6445,45.4163479 315.7335,42.509 C315.8225,39.6016521 315.926333,36.1900196 316.045,32.274 C316.045,31.7399973 316.015334,31.0428376 315.956,30.1825 C315.896666,29.3221624 315.867,28.8326673 315.867,28.714 C315.867,28.239331 316.059831,27.9575004 316.4455,27.8685 C316.831169,27.7794996 317.112999,27.735 317.291,27.735 C317.706335,27.735 318.195831,27.7794996 318.7595,27.8685 C319.323169,27.9575004 319.886831,28.0613327 320.4505,28.18 C321.014169,28.2986673 321.533331,28.4321659 322.008,28.5805 C322.482669,28.7288341 322.808999,28.8623327 322.987,28.981 L322.987,50.43 C323.283668,49.2433274 323.624831,47.8638412 324.0105,46.2915 C324.396169,44.7191588 324.841164,43.1616744 325.3455,41.619 C325.849836,40.0763256 326.398664,38.6523399 326.992,37.347 C327.585336,36.0416601 328.20833,35.0923363 328.861,34.499 C329.098335,34.3209991 329.54333,34.1875004 330.196,34.0985 C330.84867,34.0094996 331.382665,33.965 331.798,33.965 C332.094668,33.965 332.465498,34.0094996 332.9105,34.0985 C333.355502,34.1875004 333.785665,34.3209991 334.201,34.499 C334.616335,34.6770009 334.987165,34.8994987 335.3135,35.1665 C335.639835,35.4335013 335.832666,35.7449982 335.892,36.101 L335.892,50.519 L335.892,51.32 C335.892,51.6760018 335.951333,51.854 336.07,51.854 C336.188667,51.854 336.529831,51.053008 337.0935,49.451 C337.657169,47.848992 338.324663,45.9503443 339.096,43.755 C339.867337,41.5596557 340.697996,39.3050116 341.588,36.991 C342.478004,34.6769884 343.278996,32.8376735 343.991,31.473 C344.109667,31.2356655 344.510163,31.1021668 345.1925,31.0725 C345.874837,31.0428332 346.482997,31.028 347.017,31.028 C347.432335,31.028 347.995996,31.1614987 348.708,31.4285 C349.420004,31.6955013 350.117163,32.066331 350.7995,32.541 C351.481837,33.015669 352.075164,33.5496637 352.5795,34.143 C353.083836,34.7363363 353.336,35.3593301 353.336,36.012 C353.336,36.1306673 353.158002,36.4718305 352.802,37.0355 C352.445998,37.5991695 352.208667,38.1776637 352.09,38.771 C351.674665,40.4323416 351.392834,42.063992 351.2445,43.666 C351.096166,45.268008 351.022,47.3149875 351.022,49.807 C351.022,50.8750053 351.0665,51.9429947 351.1555,53.011 C351.2445,54.0790053 351.392832,55.0431624 351.6005,55.9035 C351.808168,56.7638376 352.089998,57.4609973 352.446,57.995 C352.802002,58.5290027 353.276664,58.796 353.87,58.796 C354.700671,58.796 355.44233,58.5141695 356.095,57.9505 C356.74767,57.3868305 357.311331,56.6303381 357.786,55.681 C358.260669,54.7316619 358.675998,53.619173 359.032,52.3435 C359.388002,51.067827 359.684665,49.7476735 359.922,48.383 C360.218668,46.9589929 360.752663,46.247 361.524,46.247 C361.998669,46.247 362.310166,46.3656655 362.4585,46.603 C362.606834,46.8403345 362.681,47.3743292 362.681,48.205 C362.681,48.679669 362.651334,49.0059991 362.592,49.184 C362.532666,49.9553372 362.280502,51.1568252 361.8355,52.7885 C361.390498,54.4201748 360.767504,56.0518252 359.9665,57.6835 C359.165496,59.3151748 358.171673,60.7391606 356.985,61.9555 C355.798327,63.1718394 354.433674,63.78 352.891,63.78 C351.051657,63.78 349.538673,63.3498376 348.352,62.4895 C347.165327,61.6291624 346.24567,60.4721739 345.593,59.0185 C344.94033,57.5648261 344.480501,55.8886762 344.2135,53.99 C343.946499,52.0913238 343.813,50.1036771 343.813,48.027 L343.813,47.404 L344.347,40.106 Z" id="m"></path>
  <path d="M317.113,52.299 C316.994333,53.1296708 316.697669,54.108661 316.223,55.236 C315.748331,56.363339 315.14017,57.4461615 314.3985,58.4845 C313.65683,59.5228385 312.796505,60.3979964 311.8175,61.11 C310.838495,61.8220036 309.755673,62.178 308.569,62.178 C306.788991,62.178 305.231507,61.4956735 303.8965,60.131 C302.561493,58.7663265 301.745668,56.8380125 301.449,54.346 C301.092998,55.2953381 300.677669,56.3929938 300.203,57.639 C299.728331,58.8850062 299.135004,60.0419947 298.423,61.11 C297.710996,62.1780053 296.895171,63.0828296 295.9755,63.8245 C295.055829,64.5661704 293.973006,64.937 292.727,64.937 C292.370998,64.937 292.104001,64.9073336 291.926,64.848 C291.747999,64.7886664 291.555168,64.7145004 291.3475,64.6255 C291.139832,64.5364996 290.902501,64.4623336 290.6355,64.403 C290.368499,64.3436664 289.997669,64.314 289.523,64.314 C288.098993,64.314 286.897505,63.8541713 285.9185,62.9345 C284.939495,62.0148287 284.153336,60.8430071 283.56,59.419 C282.966664,57.9949929 282.536501,56.4375085 282.2695,54.7465 C282.002499,53.0554915 281.869,51.4683407 281.869,49.985 C281.869,46.4249822 282.061831,43.043016 282.4475,39.839 C282.833169,36.634984 283.470996,33.8018456 284.361,31.3395 C285.251004,28.8771544 286.407993,26.9191739 287.832,25.4655 C289.256007,24.0118261 290.976657,23.285 292.994,23.285 C294.180673,23.285 295.085497,23.3888323 295.7085,23.5965 C296.331503,23.8041677 296.909997,24.0414987 297.444,24.3085 C297.978003,24.5755013 298.556497,24.8573318 299.1795,25.154 C299.802503,25.4506681 300.677661,25.6879991 301.805,25.866 C303.051006,26.5780036 303.926164,27.4234951 304.4305,28.4025 C304.934836,29.3815049 305.261166,30.434661 305.4095,31.562 C305.557834,32.689339 305.602334,33.8611606 305.543,35.0775 C305.483666,36.2938394 305.542999,37.4953274 305.721,38.682 C305.721,38.7413336 305.854499,38.8303327 306.1215,38.949 C306.388501,39.0676673 306.699998,39.2011659 307.056,39.3495 C307.412002,39.4978341 307.723499,39.7054987 307.9905,39.9725 C308.257501,40.2395013 308.391,40.5806646 308.391,40.996 L308.391,41.352 C307.797664,42.8946744 307.441667,44.2593274 307.323,45.446 C307.204333,46.6326726 307.145,48.0566584 307.145,49.718 C307.145,50.5486708 307.1895,51.4534951 307.2785,52.4325 C307.3675,53.4115049 307.515832,54.3311624 307.7235,55.1915 C307.931168,56.0518376 308.242665,56.7638305 308.658,57.3275 C309.073335,57.8911695 309.60733,58.173 310.26,58.173 C310.972004,58.173 311.609831,57.8170036 312.1735,57.105 C312.737169,56.3929964 313.211831,55.5771713 313.5975,54.6575 C313.983169,53.7378287 314.309499,52.8033381 314.5765,51.854 C314.843501,50.9046619 315.006666,50.192669 315.066,49.718 C315.184667,49.0059964 315.481331,48.65 315.956,48.65 C316.252668,48.65 316.534499,48.813165 316.8015,49.1395 C317.068501,49.465835 317.202,50.0443292 317.202,50.875 L317.202,51.5425 C317.202,51.7501677 317.172334,52.0023319 317.113,52.299 Z M300.648,37.881 C300.648,37.2283301 300.588667,36.4570045 300.47,35.567 C300.351333,34.6769956 300.143668,33.8463372 299.847,33.075 C299.550332,32.3036628 299.105336,31.6510027 298.512,31.117 C297.918664,30.5829973 297.117672,30.316 296.109,30.316 C294.447658,30.316 293.097839,31.0724924 292.0595,32.5855 C291.021161,34.0985076 290.205336,35.8784898 289.612,37.9255 C289.018664,39.9725102 288.633001,42.0788225 288.455,44.2445 C288.276999,46.4101775 288.188,48.1159938 288.188,49.362 C288.188,50.3113381 288.2325,51.4534933 288.3215,52.7885 C288.4105,54.1235067 288.573665,55.3843274 288.811,56.571 C289.048335,57.7576726 289.389498,58.7663292 289.8345,59.597 C290.279502,60.4276708 290.857996,60.843 291.57,60.843 C293.290675,60.843 294.610829,60.1755067 295.5305,58.8405 C296.450171,57.5054933 297.147331,55.8441766 297.622,53.8565 C298.096669,51.8688234 298.437832,49.7328448 298.6455,47.4485 C298.853168,45.1641552 299.045999,43.0726762 299.224,41.174 C299.342667,40.1653283 299.609665,39.5275013 300.025,39.2605 C300.440335,38.9934987 300.648,38.8006673 300.648,38.682 L300.648,37.881 Z" id="a"></path>
  <path d="M284.45,49.451 C284.45,49.8663354 284.316501,50.8601588 284.0495,52.4325 C283.782499,54.0048412 283.307837,55.6661579 282.6255,57.4165 C281.943163,59.1668421 281.023506,60.7243265 279.8665,62.089 C278.709494,63.4536735 277.241009,64.136 275.461,64.136 C273.562324,64.136 272.049339,63.4685067 270.922,62.1335 C269.794661,60.7984933 268.934336,59.1965093 268.341,57.3275 C267.747664,55.4584907 267.362001,53.5005102 267.184,51.4535 C267.005999,49.4064898 266.917,47.7006735 266.917,46.336 C266.917,44.7933256 267.005999,43.2358412 267.184,41.6635 C267.362001,40.0911588 267.480666,38.5336744 267.54,36.991 C267.54,36.516331 267.302669,36.2196673 266.828,36.101 C266.353331,35.9823327 265.908335,35.923 265.493,35.923 C264.780996,35.923 264.336001,36.0119991 264.158,36.19 C263.979999,36.3680009 263.861334,36.5756655 263.802,36.813 L263.446,39.661 C263.208665,41.5596762 262.956501,43.3841579 262.6895,45.1345 C262.422499,46.8848421 262.125835,48.4274933 261.7995,49.7625 C261.473165,51.0975067 261.087502,52.165496 260.6425,52.9665 C260.197498,53.767504 259.678336,54.168 259.085,54.168 L258.996,54.168 C258.758665,54.168 258.536168,54.1086673 258.3285,53.99 C258.120832,53.8713327 258.017,53.574669 258.017,53.1 C258.017,52.8626655 258.076333,52.506669 258.195,52.032 C258.669669,49.9553229 258.966333,48.2346735 259.085,46.87 C259.203667,45.5053265 259.292666,44.2890053 259.352,43.221 L259.352,42.598 C259.352,42.3013318 259.366833,41.9453354 259.3965,41.53 C259.426167,41.1146646 259.441,40.6103363 259.441,40.017 L259.441,37.703 L259.441,35.656 C259.441,34.9439964 259.381667,34.1726708 259.263,33.342 L258.996,28.091 C258.996,27.7349982 259.144332,27.4086681 259.441,27.112 C259.737668,26.8153318 260.123331,26.5483345 260.598,26.311 C261.072669,26.0736655 261.576997,25.8956673 262.111,25.777 C262.645003,25.6583327 263.119665,25.599 263.535,25.599 C264.543672,25.599 265.048,26.2516601 265.048,27.557 L265.048,28.002 L264.959,29.96 L264.959,30.494 C264.959,30.9093354 265.047999,31.1614996 265.226,31.2505 C265.404001,31.3395004 265.759997,31.4433327 266.294,31.562 L266.561,31.562 C267.035669,31.6213336 267.806995,31.6806664 268.875,31.74 C269.943005,31.7993336 271.010995,31.9179991 272.079,32.096 C273.147005,32.2740009 274.081496,32.5558314 274.8825,32.9415 C275.683504,33.3271686 276.084,33.8759964 276.084,34.588 C276.084,34.8253345 276.024667,35.1664978 275.906,35.6115 C275.787333,36.0565022 275.639001,36.5014978 275.461,36.9465 C275.282999,37.3915022 275.134667,37.7919982 275.016,38.148 C274.897333,38.5040018 274.838,38.7413327 274.838,38.86 C273.769995,42.9540205 273.236,47.2259777 273.236,51.676 C273.236,52.0320018 273.265666,52.6846619 273.325,53.634 C273.384334,54.5833381 273.502999,55.5623283 273.681,56.571 C273.859001,57.5796717 274.125998,58.4696628 274.482,59.241 C274.838002,60.0123372 275.282997,60.398 275.817,60.398 C276.707004,60.398 277.507996,59.8491722 278.22,58.7515 C278.932004,57.6538278 279.554997,56.3781739 280.089,54.9245 C280.623003,53.4708261 281.053165,52.0023407 281.3795,50.519 C281.705835,49.0356592 281.928333,47.9380036 282.047,47.226 C282.165667,46.5733301 282.358499,46.1728341 282.6255,46.0245 C282.892501,45.8761659 283.144665,45.802 283.382,45.802 C284.212671,45.802 284.628,46.3359947 284.628,47.404 C284.628,47.5226673 284.613167,47.8341641 284.5835,48.3385 C284.553833,48.8428359 284.509334,49.2136655 284.45,49.451 L284.45,49.451 Z" id="r"></path>
  <path d="M257.839,64.314 C257.839,64.9073363 257.572003,65.3226655 257.038,65.56 C256.503997,65.7973345 255.999669,65.916 255.525,65.916 L253.745,65.738 C253.448332,65.738 253.3,65.9159982 253.3,66.272 L253.211,67.34 C253.270334,68.942008 253.3,70.9593212 253.3,73.392 L253.3,80.423 C253.3,82.7963452 253.225834,85.1251552 253.0775,87.4095 C252.929166,89.6938448 252.588003,91.7408243 252.054,93.5505 C251.519997,95.3601757 250.763505,96.8138278 249.7845,97.9115 C248.805495,99.0091722 247.455675,99.558 245.735,99.558 C244.251659,99.558 242.694175,99.4838341 241.0625,99.3355 C239.430825,99.1871659 237.947507,98.8163363 236.6125,98.223 C235.277493,97.6296637 234.179838,96.7545058 233.3195,95.5975 C232.459162,94.4404942 232.029,92.8830098 232.029,90.925 C232.029,88.9669902 232.251498,86.9645102 232.6965,84.9175 C233.141502,82.8704898 233.779329,80.882843 234.61,78.9545 C235.440671,77.026157 236.434494,75.1868421 237.5915,73.4365 C238.748506,71.6861579 240.009327,70.1286735 241.374,68.764 C242.086004,68.0519964 242.872162,67.3251704 243.7325,66.5835 C244.592838,65.8418296 245.34933,65.233669 246.002,64.759 L246.002,64.67 C246.120667,63.4239938 246.209666,62.1780062 246.269,60.932 C246.328334,59.6859938 246.358,58.4103399 246.358,57.105 C246.061332,57.6390027 245.705335,58.3658287 245.29,59.2855 C244.874665,60.2051713 244.385169,61.0803292 243.8215,61.911 C243.257831,62.7416708 242.620004,63.4684969 241.908,64.0915 C241.195996,64.7145031 240.395004,65.026 239.505,65.026 C239.030331,65.026 238.615002,64.9370009 238.259,64.759 C237.902998,64.5809991 237.39867,64.492 236.746,64.492 C235.084658,64.3733327 233.705172,63.9283372 232.6075,63.157 C231.509828,62.3856628 230.649503,61.3176735 230.0265,59.953 C229.403497,58.5883265 228.973335,56.9715093 228.736,55.1025 C228.498665,53.2334907 228.38,51.1420116 228.38,48.828 C228.38,46.0393194 228.543165,43.1616815 228.8695,40.195 C229.195835,37.2283185 229.774329,34.5138456 230.605,32.0515 C231.435671,29.5891544 232.54816,27.5718412 233.9425,25.9995 C235.33684,24.4271588 237.101989,23.641 239.238,23.641 C239.475335,23.641 239.786831,23.7299991 240.1725,23.908 C240.558169,24.0860009 240.973498,24.2788323 241.4185,24.4865 C241.863502,24.6941677 242.308498,24.9018323 242.7535,25.1095 C243.198502,25.3171677 243.539665,25.4506664 243.777,25.51 C244.963673,25.7473345 246.061328,26.0439982 247.07,26.4 C248.078672,26.7560018 248.938996,27.2158305 249.651,27.7795 C250.363004,28.3431695 250.926665,29.0848287 251.342,30.0045 C251.757335,30.9241713 251.965,32.0663265 251.965,33.431 C251.965,34.3803381 251.890834,35.2406628 251.7425,36.012 C251.594166,36.7833372 251.52,37.7623274 251.52,38.949 C251.52,39.423669 251.697998,39.7499991 252.054,39.928 C252.410002,40.1060009 252.810498,40.2543327 253.2555,40.373 C253.700502,40.4916673 254.100998,40.6251659 254.457,40.7735 C254.813002,40.9218341 254.991,41.233331 254.991,41.708 C254.991,41.8266673 254.857501,42.1084978 254.5905,42.5535 C254.323499,42.9985022 254.160334,43.2803327 254.101,43.399 C253.922999,43.873669 253.774667,44.6301615 253.656,45.6685 C253.537333,46.7068385 253.448334,47.8341606 253.389,49.0505 C253.329666,50.2668394 253.285167,51.512827 253.2555,52.7885 C253.225833,54.064173 253.211,55.2063283 253.211,56.215 L253.211,59.2855 C253.211,60.561173 253.240666,61.6143292 253.3,62.445 L253.656,62.445 C253.774667,62.445 253.893333,62.4301668 254.012,62.4005 C254.130667,62.3708332 254.219666,62.356 254.279,62.356 C254.813003,62.356 255.539829,62.519165 256.4595,62.8455 C257.379171,63.171835 257.839,63.6613301 257.839,64.314 Z M246.091,67.785 C244.726327,68.7343381 243.435839,70.0693247 242.2195,71.79 C241.003161,73.5106753 239.950004,75.3796566 239.06,77.397 C238.169996,79.4143434 237.472836,81.4613229 236.9685,83.538 C236.464164,85.614677 236.212,87.4836584 236.212,89.145 C236.212,89.7383363 236.271333,90.3909964 236.39,91.103 C236.508667,91.8150036 236.701499,92.4824969 236.9685,93.1055 C237.235501,93.7285031 237.621164,94.2476646 238.1255,94.663 C238.629836,95.0783354 239.237996,95.286 239.95,95.286 C241.196006,95.286 242.219496,94.7668385 243.0205,93.7285 C243.821504,92.6901615 244.444498,91.4590071 244.8895,90.035 C245.334502,88.6109929 245.631166,87.1573408 245.7795,85.674 C245.927834,84.1906592 246.002,83.0040044 246.002,82.114 L246.002,81.313 C246.002,80.9569982 246.016833,80.2746717 246.0465,79.266 C246.076167,78.2573283 246.091,76.8481757 246.091,75.0385 L246.091,67.785 Z M246.447,36.813 C246.447,36.1603301 246.387667,35.4186708 246.269,34.588 C246.150333,33.7573292 245.942668,32.9711704 245.646,32.2295 C245.349332,31.4878296 244.919169,30.8648359 244.3555,30.3605 C243.791831,29.8561641 243.094671,29.604 242.264,29.604 C241.136661,29.604 240.083505,30.0489955 239.1045,30.939 C238.125495,31.8290044 237.26517,33.0898252 236.5235,34.7215 C235.78183,36.3531748 235.188502,38.3408216 234.7435,40.6845 C234.298498,43.0281784 234.076,45.6833185 234.076,48.65 C234.076,49.8960062 234.1205,51.1864933 234.2095,52.5215 C234.2985,53.8565067 234.446832,55.0579947 234.6545,56.126 C234.862168,57.1940053 235.188498,58.0839964 235.6335,58.796 C236.078502,59.5080036 236.656996,59.864 237.369,59.864 C238.615006,59.864 239.712662,59.3300053 240.662,58.262 C241.611338,57.1939947 242.397497,55.8738412 243.0205,54.3015 C243.643503,52.7291588 244.118165,51.0975085 244.4445,49.4065 C244.770835,47.7154915 244.963666,46.2470062 245.023,45.001 C245.082334,43.2803247 245.171333,42.1085031 245.29,41.4855 C245.408667,40.8624969 245.527333,40.4620009 245.646,40.284 C246.002002,39.809331 246.2245,39.2456699 246.3135,38.593 C246.4025,37.9403301 246.447,37.3470027 246.447,36.813 Z" id="g"></path>
  <path d="M214.763,42.598 C213.872996,43.8440062 213.146169,45.2234924 212.5825,46.7365 C212.018831,48.2495076 211.529335,49.8218252 211.114,51.4535 C210.698665,53.0851748 210.357501,54.7168252 210.0905,56.3485 C209.823499,57.9801748 209.541668,59.5376593 209.245,61.021 C209.126333,61.3770018 208.666504,61.6143327 207.8655,61.733 C207.064496,61.8516673 206.486002,61.911 206.13,61.911 C205.061995,61.911 204.186837,61.8516673 203.5045,61.733 C202.822163,61.6143327 202.303002,61.3325022 201.947,60.8875 C201.590998,60.4424978 201.324001,59.7601713 201.146,58.8405 C200.967999,57.9208287 200.819667,56.6896744 200.701,55.147 L201.858,28.714 C201.858,27.9426628 202.273329,27.557 203.104,27.557 C203.400668,27.557 203.815997,27.6014996 204.35,27.6905 C204.884003,27.7795004 205.447664,27.9129991 206.041,28.091 C206.634336,28.2690009 207.138665,28.4914987 207.554,28.7585 C207.969335,29.0255013 208.177,29.3369982 208.177,29.693 L208.177,47.76 C208.236334,47.7006664 208.325333,47.4633354 208.444,47.048 C208.859335,45.9799947 209.363664,44.6598412 209.957,43.0875 C210.550336,41.5151588 211.202996,40.0170071 211.915,38.593 C212.627004,37.1689929 213.383496,35.9526717 214.1845,34.944 C214.985504,33.9353283 215.801329,33.431 216.632,33.431 C217.700005,33.431 218.515831,33.6831641 219.0795,34.1875 C219.643169,34.6918359 220.073332,35.3296628 220.37,36.101 C220.666668,36.8723372 220.844666,37.7029956 220.904,38.593 C220.963334,39.4830045 220.993,40.3433292 220.993,41.174 C220.993,41.7673363 220.933667,42.7463265 220.815,44.111 C220.696333,45.4756735 220.637,47.522653 220.637,50.252 C220.637,51.7946744 220.785332,53.1889938 221.082,54.435 C221.378668,55.6810062 221.971996,56.304 222.862,56.304 C223.51467,56.304 224.107997,56.0073363 224.642,55.414 C225.176003,54.8206637 225.665498,54.0790045 226.1105,53.189 C226.555502,52.2989956 226.926332,51.3496717 227.223,50.341 C227.519668,49.3323283 227.697666,48.3830045 227.757,47.493 C227.816334,46.365661 228.261329,45.802 229.092,45.802 C229.626003,45.802 229.981999,45.9799982 230.16,46.336 C230.338001,46.6920018 230.427,47.107331 230.427,47.582 L230.427,47.76 C230.367666,48.9466726 230.145169,50.2816593 229.7595,51.765 C229.373831,53.2483408 228.81017,54.6426601 228.0685,55.948 C227.32683,57.2533399 226.362673,58.3509956 225.176,59.241 C223.989327,60.1310045 222.535675,60.576 220.815,60.576 C218.144987,60.576 216.43917,59.611843 215.6975,57.6835 C214.95583,55.755157 214.585,52.8923523 214.585,49.095 L214.763,42.598 Z" id="n"></path>
  <path d="M201.502,36.546 C201.739335,36.1306646 202.154664,35.923 202.748,35.923 C203.044668,35.923 203.252333,36.1009982 203.371,36.457 C203.489667,36.8130018 203.549,37.1096655 203.549,37.347 C203.489666,39.1863425 203.08917,40.8328261 202.3475,42.2865 C201.60583,43.7401739 200.819671,45.0009947 199.989,46.069 C199.514331,46.7216699 198.995169,47.3149973 198.4315,47.849 C197.867831,48.3830027 197.289336,48.887331 196.696,49.362 C196.636666,50.3706717 196.592167,51.0678314 196.5625,51.4535 C196.532833,51.8391686 196.488334,52.1506655 196.429,52.388 C196.310333,53.2780045 196.013669,54.4053265 195.539,55.77 C195.064331,57.1346735 194.396838,58.4696601 193.5365,59.775 C192.676162,61.0803399 191.637839,62.1928287 190.4215,63.1125 C189.205161,64.0321713 187.796008,64.492 186.194,64.492 C185.659997,64.492 185.051837,64.4326673 184.3695,64.314 C183.687163,64.1953327 182.990004,64.0321677 182.278,63.8245 C181.565996,63.6168323 180.88367,63.3795013 180.231,63.1125 C179.57833,62.8454987 179.014669,62.5636682 178.54,62.267 C177.056659,61.4363292 175.840338,60.457339 174.891,59.33 C173.941662,58.202661 173.214836,57.001173 172.7105,55.7255 C172.206164,54.449827 171.865001,53.1445067 171.687,51.8095 C171.508999,50.4744933 171.42,49.1840062 171.42,47.938 C171.42,45.8019893 171.642498,43.6363443 172.0875,41.441 C172.532502,39.2456557 173.08133,37.1393434 173.734,35.122 C174.38667,33.1046566 175.128329,31.295008 175.959,29.693 C176.789671,28.090992 177.590663,26.8450045 178.362,25.955 C179.133337,25.1243292 179.993662,24.545835 180.943,24.2195 C181.892338,23.893165 182.752663,23.73 183.524,23.73 C184.473338,23.73 185.422662,23.967331 186.372,24.442 C187.321338,24.916669 188.240996,25.5099964 189.131,26.222 C190.021004,26.9340036 190.896162,27.7498287 191.7565,28.6695 C192.616838,29.5891713 193.432663,30.4939956 194.204,31.384 C194.797336,32.0366699 195.242332,33.0898261 195.539,34.5435 C195.835668,35.9971739 196.072999,37.4656593 196.251,38.949 C196.369667,39.7796708 196.458666,40.6696619 196.518,41.619 C196.577334,42.5683381 196.607,43.5473283 196.607,44.556 C197.497004,43.8439964 198.208997,43.087504 198.743,42.2865 C199.277003,41.485496 199.707165,40.7290036 200.0335,40.017 C200.359835,39.3049964 200.626832,38.6375031 200.8345,38.0145 C201.042168,37.3914969 201.264665,36.9020018 201.502,36.546 Z M191,51.498 C190.287996,51.972669 189.309006,52.3286655 188.063,52.566 C186.816994,52.8033345 185.778671,52.922 184.948,52.922 C183.345992,52.922 182.114838,52.8033345 181.2545,52.566 C180.394162,52.3286655 179.459672,51.8540036 178.451,51.142 L178.362,53.011 C178.362,53.6636699 178.450999,54.3459964 178.629,55.058 C178.807001,55.7700036 179.088831,56.4226637 179.4745,57.016 C179.860169,57.6093363 180.408996,58.0988314 181.121,58.4845 C181.833004,58.8701686 182.722995,59.063 183.791,59.063 C185.09634,59.063 186.208829,58.8108359 187.1285,58.3065 C188.048171,57.8021641 188.789831,57.1643372 189.3535,56.393 C189.917169,55.6216628 190.332499,54.7910044 190.5995,53.901 C190.866501,53.0109955 191,52.2100036 191,51.498 Z M191.445,44.2 C191.445,43.9626655 191.430167,43.4286708 191.4005,42.598 C191.370833,41.7673292 191.3115,40.788339 191.2225,39.661 C191.1335,38.533661 190.985168,37.3618394 190.7775,36.1455 C190.569832,34.9291606 190.273169,33.8166717 189.8875,32.808 C189.501831,31.7993283 189.012336,30.9538367 188.419,30.2715 C187.825664,29.5891633 187.084004,29.248 186.194,29.248 C185.303996,29.248 184.443671,29.6039964 183.613,30.316 C182.782329,31.0280036 182.04067,31.947661 181.388,33.075 C180.73533,34.202339 180.216169,35.4779929 179.8305,36.902 C179.444831,38.3260071 179.252,39.7203265 179.252,41.085 C179.252,43.4583452 179.726662,45.1938278 180.676,46.2915 C181.625338,47.3891722 183.256988,47.938 185.571,47.938 C187.291675,47.938 188.700828,47.6710027 189.7985,47.137 C190.896172,46.6029973 191.445,46.1876681 191.445,45.891 L191.445,44.2 Z" id="o"></path>
  <path d="M158.515,42.598 C157.624996,43.8440062 156.898169,45.2234924 156.3345,46.7365 C155.770831,48.2495076 155.281335,49.8218252 154.866,51.4535 C154.450665,53.0851748 154.109501,54.7168252 153.8425,56.3485 C153.575499,57.9801748 153.293668,59.5376593 152.997,61.021 C152.878333,61.3770018 152.418504,61.6143327 151.6175,61.733 C150.816496,61.8516673 150.238002,61.911 149.882,61.911 C148.813995,61.911 147.938837,61.8516673 147.2565,61.733 C146.574163,61.6143327 146.055002,61.3325022 145.699,60.8875 C145.342998,60.4424978 145.076001,59.7601713 144.898,58.8405 C144.719999,57.9208287 144.571667,56.6896744 144.453,55.147 L145.61,28.714 C145.61,27.9426628 146.025329,27.557 146.856,27.557 C147.152668,27.557 147.567997,27.6014996 148.102,27.6905 C148.636003,27.7795004 149.199664,27.9129991 149.793,28.091 C150.386336,28.2690009 150.890665,28.4914987 151.306,28.7585 C151.721335,29.0255013 151.929,29.3369982 151.929,29.693 L151.929,47.76 C151.988334,47.7006664 152.077333,47.4633354 152.196,47.048 C152.611335,45.9799947 153.115664,44.6598412 153.709,43.0875 C154.302336,41.5151588 154.954996,40.0170071 155.667,38.593 C156.379004,37.1689929 157.135496,35.9526717 157.9365,34.944 C158.737504,33.9353283 159.553329,33.431 160.384,33.431 C161.452005,33.431 162.267831,33.6831641 162.8315,34.1875 C163.395169,34.6918359 163.825332,35.3296628 164.122,36.101 C164.418668,36.8723372 164.596666,37.7029956 164.656,38.593 C164.715334,39.4830045 164.745,40.3433292 164.745,41.174 C164.745,41.7673363 164.685667,42.7463265 164.567,44.111 C164.448333,45.4756735 164.389,47.522653 164.389,50.252 C164.389,51.7946744 164.537332,53.1889938 164.834,54.435 C165.130668,55.6810062 165.723996,56.304 166.614,56.304 C167.26667,56.304 167.859997,56.0073363 168.394,55.414 C168.928003,54.8206637 169.417498,54.0790045 169.8625,53.189 C170.307502,52.2989956 170.678332,51.3496717 170.975,50.341 C171.271668,49.3323283 171.449666,48.3830045 171.509,47.493 C171.568334,46.365661 172.013329,45.802 172.844,45.802 C173.378003,45.802 173.733999,45.9799982 173.912,46.336 C174.090001,46.6920018 174.179,47.107331 174.179,47.582 L174.179,47.76 C174.119666,48.9466726 173.897169,50.2816593 173.5115,51.765 C173.125831,53.2483408 172.56217,54.6426601 171.8205,55.948 C171.07883,57.2533399 170.114673,58.3509956 168.928,59.241 C167.741327,60.1310045 166.287675,60.576 164.567,60.576 C161.896987,60.576 160.19117,59.611843 159.4495,57.6835 C158.70783,55.755157 158.337,52.8923523 158.337,49.095 L158.515,42.598 Z" id="n"></path>
  <path d="M131.37,42.598 C130.479996,43.8440062 129.753169,45.2234924 129.1895,46.7365 C128.625831,48.2495076 128.136335,49.8218252 127.721,51.4535 C127.305665,53.0851748 126.964501,54.7168252 126.6975,56.3485 C126.430499,57.9801748 126.148668,59.5376593 125.852,61.021 C125.733333,61.3770018 125.273504,61.6143327 124.4725,61.733 C123.671496,61.8516673 123.093002,61.911 122.737,61.911 C121.668995,61.911 120.793837,61.8516673 120.1115,61.733 C119.429163,61.6143327 118.910002,61.3325022 118.554,60.8875 C118.197998,60.4424978 117.931001,59.7601713 117.753,58.8405 C117.574999,57.9208287 117.426667,56.6896744 117.308,55.147 L118.465,28.714 C118.465,27.9426628 118.880329,27.557 119.711,27.557 C120.007668,27.557 120.422997,27.6014996 120.957,27.6905 C121.491003,27.7795004 122.054664,27.9129991 122.648,28.091 C123.241336,28.2690009 123.745665,28.4914987 124.161,28.7585 C124.576335,29.0255013 124.784,29.3369982 124.784,29.693 L124.784,47.76 C124.843334,47.7006664 124.932333,47.4633354 125.051,47.048 C125.466335,45.9799947 125.970664,44.6598412 126.564,43.0875 C127.157336,41.5151588 127.809996,40.0170071 128.522,38.593 C129.234004,37.1689929 129.990496,35.9526717 130.7915,34.944 C131.592504,33.9353283 132.408329,33.431 133.239,33.431 C134.307005,33.431 135.122831,33.6831641 135.6865,34.1875 C136.250169,34.6918359 136.680332,35.3296628 136.977,36.101 C137.273668,36.8723372 137.451666,37.7029956 137.511,38.593 C137.570334,39.4830045 137.6,40.3433292 137.6,41.174 C137.6,41.7673363 137.540667,42.7463265 137.422,44.111 C137.303333,45.4756735 137.244,47.522653 137.244,50.252 C137.244,51.7946744 137.392332,53.1889938 137.689,54.435 C137.985668,55.6810062 138.578996,56.304 139.469,56.304 C140.12167,56.304 140.714997,56.0073363 141.249,55.414 C141.783003,54.8206637 142.272498,54.0790045 142.7175,53.189 C143.162502,52.2989956 143.533332,51.3496717 143.83,50.341 C144.126668,49.3323283 144.304666,48.3830045 144.364,47.493 C144.423334,46.365661 144.868329,45.802 145.699,45.802 C146.233003,45.802 146.588999,45.9799982 146.767,46.336 C146.945001,46.6920018 147.034,47.107331 147.034,47.582 L147.034,47.76 C146.974666,48.9466726 146.752169,50.2816593 146.3665,51.765 C145.980831,53.2483408 145.41717,54.6426601 144.6755,55.948 C143.93383,57.2533399 142.969673,58.3509956 141.783,59.241 C140.596327,60.1310045 139.142675,60.576 137.422,60.576 C134.751987,60.576 133.04617,59.611843 132.3045,57.6835 C131.56283,55.755157 131.192,52.8923523 131.192,49.095 L131.37,42.598 Z" id="n"></path>
  <path d="M120.423,52.299 C120.304333,53.1296708 120.007669,54.108661 119.533,55.236 C119.058331,56.363339 118.45017,57.4461615 117.7085,58.4845 C116.96683,59.5228385 116.106505,60.3979964 115.1275,61.11 C114.148495,61.8220036 113.065673,62.178 111.879,62.178 C110.098991,62.178 108.541507,61.4956735 107.2065,60.131 C105.871493,58.7663265 105.055668,56.8380125 104.759,54.346 C104.402998,55.2953381 103.987669,56.3929938 103.513,57.639 C103.038331,58.8850062 102.445004,60.0419947 101.733,61.11 C101.020996,62.1780053 100.205171,63.0828296 99.2855,63.8245 C98.3658287,64.5661704 97.2830062,64.937 96.037,64.937 C95.6809982,64.937 95.4140009,64.9073336 95.236,64.848 C95.0579991,64.7886664 94.8651677,64.7145004 94.6575,64.6255 C94.4498323,64.5364996 94.2125013,64.4623336 93.9455,64.403 C93.6784987,64.3436664 93.307669,64.314 92.833,64.314 C91.4089929,64.314 90.2075049,63.8541713 89.2285,62.9345 C88.2494951,62.0148287 87.4633363,60.8430071 86.87,59.419 C86.2766637,57.9949929 85.8465013,56.4375085 85.5795,54.7465 C85.3124987,53.0554915 85.179,51.4683407 85.179,49.985 C85.179,46.4249822 85.3718314,43.043016 85.7575,39.839 C86.1431686,36.634984 86.7809955,33.8018456 87.671,31.3395 C88.5610044,28.8771544 89.7179929,26.9191739 91.142,25.4655 C92.5660071,24.0118261 94.2866566,23.285 96.304,23.285 C97.4906726,23.285 98.3954969,23.3888323 99.0185,23.5965 C99.6415031,23.8041677 100.219997,24.0414987 100.754,24.3085 C101.288003,24.5755013 101.866497,24.8573318 102.4895,25.154 C103.112503,25.4506681 103.987661,25.6879991 105.115,25.866 C106.361006,26.5780036 107.236164,27.4234951 107.7405,28.4025 C108.244836,29.3815049 108.571166,30.434661 108.7195,31.562 C108.867834,32.689339 108.912334,33.8611606 108.853,35.0775 C108.793666,36.2938394 108.852999,37.4953274 109.031,38.682 C109.031,38.7413336 109.164499,38.8303327 109.4315,38.949 C109.698501,39.0676673 110.009998,39.2011659 110.366,39.3495 C110.722002,39.4978341 111.033499,39.7054987 111.3005,39.9725 C111.567501,40.2395013 111.701,40.5806646 111.701,40.996 L111.701,41.352 C111.107664,42.8946744 110.751667,44.2593274 110.633,45.446 C110.514333,46.6326726 110.455,48.0566584 110.455,49.718 C110.455,50.5486708 110.4995,51.4534951 110.5885,52.4325 C110.6775,53.4115049 110.825832,54.3311624 111.0335,55.1915 C111.241168,56.0518376 111.552665,56.7638305 111.968,57.3275 C112.383335,57.8911695 112.91733,58.173 113.57,58.173 C114.282004,58.173 114.919831,57.8170036 115.4835,57.105 C116.047169,56.3929964 116.521831,55.5771713 116.9075,54.6575 C117.293169,53.7378287 117.619499,52.8033381 117.8865,51.854 C118.153501,50.9046619 118.316666,50.192669 118.376,49.718 C118.494667,49.0059964 118.791331,48.65 119.266,48.65 C119.562668,48.65 119.844499,48.813165 120.1115,49.1395 C120.378501,49.465835 120.512,50.0443292 120.512,50.875 C120.512,51.1123345 120.512,51.3348323 120.512,51.5425 C120.512,51.7501677 120.482334,52.0023319 120.423,52.299 Z M103.958,37.881 C103.958,37.2283301 103.898667,36.4570045 103.78,35.567 C103.661333,34.6769956 103.453668,33.8463372 103.157,33.075 C102.860332,32.3036628 102.415336,31.6510027 101.822,31.117 C101.228664,30.5829973 100.427672,30.316 99.419,30.316 C97.7576584,30.316 96.4078385,31.0724924 95.3695,32.5855 C94.3311615,34.0985076 93.5153363,35.8784898 92.922,37.9255 C92.3286637,39.9725102 91.9430009,42.0788225 91.765,44.2445 C91.5869991,46.4101775 91.498,48.1159938 91.498,49.362 C91.498,50.3113381 91.5424996,51.4534933 91.6315,52.7885 C91.7205004,54.1235067 91.8836655,55.3843274 92.121,56.571 C92.3583345,57.7576726 92.6994978,58.7663292 93.1445,59.597 C93.5895022,60.4276708 94.1679964,60.843 94.88,60.843 C96.6006753,60.843 97.9208287,60.1755067 98.8405,58.8405 C99.7601713,57.5054933 100.457331,55.8441766 100.932,53.8565 C101.406669,51.8688234 101.747832,49.7328448 101.9555,47.4485 C102.163168,45.1641552 102.355999,43.0726762 102.534,41.174 C102.652667,40.1653283 102.919665,39.5275013 103.335,39.2605 C103.750335,38.9934987 103.958,38.8006673 103.958,38.682 L103.958,37.881 Z" id="a"></path>
  <path d="M87.76,49.451 C87.76,49.8663354 87.6265013,50.8601588 87.3595,52.4325 C87.0924987,54.0048412 86.6178367,55.6661579 85.9355,57.4165 C85.2531633,59.1668421 84.3335058,60.7243265 83.1765,62.089 C82.0194942,63.4536735 80.5510089,64.136 78.771,64.136 C76.8723238,64.136 75.359339,63.4685067 74.232,62.1335 C73.104661,60.7984933 72.2443363,59.1965093 71.651,57.3275 C71.0576637,55.4584907 70.6720009,53.5005102 70.494,51.4535 C70.3159991,49.4064898 70.227,47.7006735 70.227,46.336 C70.227,44.7933256 70.3159991,43.2358412 70.494,41.6635 C70.6720009,40.0911588 70.7906664,38.5336744 70.85,36.991 C70.85,36.516331 70.612669,36.2196673 70.138,36.101 C69.663331,35.9823327 69.2183354,35.923 68.803,35.923 C68.0909964,35.923 67.6460009,36.0119991 67.468,36.19 C67.2899991,36.3680009 67.1713336,36.5756655 67.112,36.813 L66.756,39.661 C66.5186655,41.5596762 66.2665013,43.3841579 65.9995,45.1345 C65.7324987,46.8848421 65.435835,48.4274933 65.1095,49.7625 C64.783165,51.0975067 64.3975022,52.165496 63.9525,52.9665 C63.5074978,53.767504 62.9883363,54.168 62.395,54.168 L62.306,54.168 C62.0686655,54.168 61.8461677,54.1086673 61.6385,53.99 C61.4308323,53.8713327 61.327,53.574669 61.327,53.1 C61.327,52.8626655 61.3863327,52.506669 61.505,52.032 C61.979669,49.9553229 62.2763327,48.2346735 62.395,46.87 C62.5136673,45.5053265 62.6026664,44.2890053 62.662,43.221 L62.662,42.598 C62.662,42.3013318 62.6768332,41.9453354 62.7065,41.53 C62.7361668,41.1146646 62.751,40.6103363 62.751,40.017 L62.751,37.703 L62.751,35.656 C62.751,34.9439964 62.6916673,34.1726708 62.573,33.342 L62.306,28.091 C62.306,27.7349982 62.4543318,27.4086681 62.751,27.112 C63.0476681,26.8153318 63.433331,26.5483345 63.908,26.311 C64.382669,26.0736655 64.8869973,25.8956673 65.421,25.777 C65.9550027,25.6583327 66.4296646,25.599 66.845,25.599 C67.8536717,25.599 68.358,26.2516601 68.358,27.557 L68.358,28.002 L68.269,29.96 L68.269,30.494 C68.269,30.9093354 68.3579991,31.1614996 68.536,31.2505 C68.7140009,31.3395004 69.0699973,31.4433327 69.604,31.562 L69.871,31.562 C70.345669,31.6213336 71.1169947,31.6806664 72.185,31.74 C73.2530053,31.7993336 74.3209947,31.9179991 75.389,32.096 C76.4570053,32.2740009 77.391496,32.5558314 78.1925,32.9415 C78.993504,33.3271686 79.394,33.8759964 79.394,34.588 C79.394,34.8253345 79.3346673,35.1664978 79.216,35.6115 C79.0973327,36.0565022 78.9490009,36.5014978 78.771,36.9465 C78.5929991,37.3915022 78.4446673,37.7919982 78.326,38.148 C78.2073327,38.5040018 78.148,38.7413327 78.148,38.86 C77.0799947,42.9540205 76.546,47.2259777 76.546,51.676 C76.546,52.0320018 76.5756664,52.6846619 76.635,53.634 C76.6943336,54.5833381 76.8129991,55.5623283 76.991,56.571 C77.1690009,57.5796717 77.4359982,58.4696628 77.792,59.241 C78.1480018,60.0123372 78.5929973,60.398 79.127,60.398 C80.0170045,60.398 80.8179964,59.8491722 81.53,58.7515 C82.2420036,57.6538278 82.8649973,56.3781739 83.399,54.9245 C83.9330027,53.4708261 84.363165,52.0023407 84.6895,50.519 C85.015835,49.0356592 85.2383327,47.9380036 85.357,47.226 C85.4756673,46.5733301 85.6684987,46.1728341 85.9355,46.0245 C86.2025013,45.8761659 86.4546655,45.802 86.692,45.802 C87.5226708,45.802 87.938,46.3359947 87.938,47.404 C87.938,47.5226673 87.9231668,47.8341641 87.8935,48.3385 C87.8638332,48.8428359 87.8193336,49.2136655 87.76,49.451 L87.76,49.451 Z" id="r"></path>
  <path d="M61.505,20.259 C61.505,21.9203416 61.0451713,23.7448234 60.1255,25.7325 C59.2058287,27.7201766 57.9895076,29.6336575 56.4765,31.473 C54.9634924,33.3123425 53.2576762,34.9884924 51.359,36.5015 C49.4603238,38.0145076 47.5616762,39.1269964 45.663,39.839 C47.265008,40.313669 48.7631597,40.8921633 50.1575,41.5745 C51.5518403,42.2568367 52.9313265,43.161661 54.296,44.289 C54.6520018,44.5856682 55.0524978,45.134496 55.4975,45.9355 C55.9425022,46.736504 56.3578314,47.5968287 56.7435,48.5165 C57.1291686,49.4361713 57.4406655,50.3409956 57.678,51.231 C57.9153345,52.1210045 58.034,52.8329973 58.034,53.367 C58.034,55.0283416 57.3368403,56.496827 55.9425,57.7725 C54.5481597,59.048173 52.9610089,60.086496 51.181,60.8875 C49.4009911,61.688504 47.6655085,62.2966646 45.9745,62.712 C44.2834915,63.1273354 43.1116699,63.335 42.459,63.335 L36.674,63.335 C36.0806637,63.335 35.1758394,63.0828359 33.9595,62.5785 C32.7431606,62.0741641 31.497173,61.4808367 30.2215,60.7985 C28.945827,60.1161633 27.8036717,59.4486699 26.795,58.796 C25.7863283,58.1433301 25.1633345,57.6686682 24.926,57.372 C25.1040009,57.0159982 25.2523327,56.2298394 25.371,55.0135 C25.4896673,53.7971606 25.5786664,52.2841757 25.638,50.4745 C25.6973336,48.6648243 25.7418332,46.6475111 25.7715,44.4225 C25.8011668,42.1974889 25.816,39.9280116 25.816,37.614 C25.816,35.2999884 25.8011668,33.2085093 25.7715,31.3395 C25.7418332,29.4704907 25.727,27.7201748 25.727,26.0885 C25.727,24.4568252 25.7121668,22.8845076 25.6825,21.3715 C25.6528332,19.8584924 25.638,18.301008 25.638,16.699 C25.638,15.2749929 25.7714987,14.2960027 26.0385,13.762 C26.3055013,13.2279973 26.4093336,12.961 26.35,12.961 C25.4006619,12.961 23.9470098,13.3169964 21.989,14.029 C20.0309902,14.7410036 18.087843,15.6309947 16.1595,16.699 C14.231157,17.7670053 12.5401739,18.938827 11.0865,20.2145 C9.63282607,21.490173 8.906,22.691661 8.906,23.819 C8.906,25.1836735 9.05433185,26.3109956 9.351,27.201 C9.64766815,28.0910044 9.796,28.5953327 9.796,28.714 C9.796,29.7226717 9.58833541,30.5681633 9.173,31.2505 C8.75766459,31.9328367 8.10500445,32.274 7.215,32.274 C6.50299644,32.274 5.93933541,32.0218359 5.524,31.5175 C5.10866459,31.0131641 4.79716771,30.4495031 4.5895,29.8265 C4.3818323,29.2034969 4.24833363,28.5953363 4.189,28.002 C4.12966637,27.4086637 4.1,27.0230009 4.1,26.845 C4.1,24.5309884 4.78232651,22.4246762 6.147,20.526 C7.51167349,18.6273238 9.29165569,16.9511739 11.487,15.4975 C13.6823443,14.0438261 16.1891526,12.7978385 19.0075,11.7595 C21.8258474,10.7211615 24.7183185,9.86083675 27.685,9.1785 C30.6516815,8.49616325 33.5441526,7.99183497 36.3625,7.6655 C39.1808474,7.33916504 41.6876557,7.176 43.883,7.176 L44.595,7.176 C47.2650134,7.23533363 49.7718216,7.7544951 52.1155,8.7335 C54.4591784,9.71250489 56.4023256,11.1809902 57.945,13.139 C58.0636673,13.2576673 58.1378332,13.3466664 58.1675,13.406 C58.1971668,13.4653336 58.2416664,13.5246664 58.301,13.584 C59.0723372,14.4740045 59.6656646,15.1711641 60.081,15.6755 C60.4963354,16.1798359 60.8078323,16.6544978 61.0155,17.0995 C61.2231677,17.5445022 61.3566664,18.004331 61.416,18.479 C61.4753336,18.953669 61.505,19.5469964 61.505,20.259 Z M50.647,50.519 C50.647,49.6289955 50.2020044,48.6796717 49.312,47.671 C48.4219955,46.6623283 47.3836726,45.7130044 46.197,44.823 C45.0103274,43.9329956 43.853339,43.2061695 42.726,42.6425 C41.598661,42.0788305 40.7680027,41.797 40.234,41.797 C38.8693265,41.797 37.5343399,41.8859991 36.229,42.064 C34.9236601,42.2420009 34.2116673,42.3903327 34.093,42.509 C34.0336664,42.5683336 33.9743336,42.8946637 33.915,43.488 C33.8556664,44.0813363 33.7963336,44.8378287 33.737,45.7575 C33.6776664,46.6771713 33.6331668,47.6709947 33.6035,48.739 C33.5738332,49.8070053 33.559,50.8453283 33.559,51.854 C33.559,52.4473363 33.6183327,53.1148296 33.737,53.8565 C33.8556673,54.5981704 34.0929982,55.3101633 34.449,55.9925 C34.8050018,56.6748367 35.2944969,57.253331 35.9175,57.728 C36.5405031,58.202669 37.3563283,58.44 38.365,58.44 L40.145,58.262 C40.7976699,58.262 41.7024942,58.098835 42.8595,57.7725 C44.0165058,57.446165 45.1734942,56.9566699 46.3305,56.304 C47.4875058,55.6513301 48.4961624,54.8355049 49.3565,53.8565 C50.2168376,52.8774951 50.647,51.7650062 50.647,50.519 Z M54.652,18.479 C54.652,15.8683203 53.3763461,14.1031713 50.825,13.1835 C48.2736539,12.2638287 44.5356913,11.804 39.611,11.804 L36.674,11.804 L34.3155,11.804 C33.514496,11.804 32.6986708,11.8633327 31.868,11.982 C31.9866673,12.1600009 32.1498323,12.3379991 32.3575,12.516 C32.5651677,12.6940009 32.7579991,12.9758314 32.936,13.3615 C33.1140009,13.7471686 33.2623327,14.3108296 33.381,15.0525 C33.4996673,15.7941704 33.559,16.8176601 33.559,18.123 L33.559,35.656 C33.559,36.130669 33.6924987,36.4421659 33.9595,36.5905 C34.2265013,36.7388341 35.1906584,36.813 36.852,36.813 C38.3353407,36.813 40.1004898,36.2938385 42.1475,35.2555 C44.1945102,34.2171615 46.1376575,32.8376753 47.977,31.117 C49.8163425,29.3963247 51.3886601,27.4383443 52.694,25.243 C53.9993399,23.0476557 54.652,20.7930116 54.652,18.479 Z" id="B"></path>
</svg>
